<?xml version="1.0" encoding="utf-8"?>
<!-- Generator: Adobe Illustrator 18.1.0, SVG Export Plug-In . SVG Version: 6.00 Build 0)  -->
<svg version="1.1" xmlns="http://www.w3.org/2000/svg" xmlns:xlink="http://www.w3.org/1999/xlink" x="0px" y="0px"
	 viewBox="0 0 176 176" enable-background="new 0 0 176 176" width="176" height="176" xml:space="preserve">
<g id="Master_vodafone_icon_grid" display="none">
	<g id="XMLID_1_" display="inline">
		<path id="XMLID_877_" fill="#ffffff" d="M176,176H0V0h176V176z M160,16H16v144h144V16z"/>
		
			<line id="XMLID_881_" fill="none" stroke="#ffffff" stroke-width="0.4" stroke-linecap="round" stroke-miterlimit="10" x1="16" y1="88" x2="160" y2="88"/>
		<g id="XMLID_882_">
			
				<rect id="XMLID_883_" x="16" y="16" fill="none" stroke="#ffffff" stroke-width="0.4" stroke-miterlimit="10" width="144" height="144"/>
			
				<circle id="XMLID_884_" fill="none" stroke="#ffffff" stroke-width="0.4" stroke-linecap="round" stroke-miterlimit="10" cx="88" cy="88" r="72"/>
			
				<line id="XMLID_885_" fill="none" stroke="#ffffff" stroke-width="0.4" stroke-linecap="round" stroke-miterlimit="10" x1="88" y1="16" x2="88" y2="160"/>
			<g id="XMLID_886_">
				
					<line id="XMLID_887_" fill="none" stroke="#ffffff" stroke-width="0.4" stroke-linecap="round" stroke-miterlimit="10" x1="16" y1="16" x2="160" y2="160"/>
				
					<line id="XMLID_888_" fill="none" stroke="#ffffff" stroke-width="0.4" stroke-linecap="round" stroke-miterlimit="10" x1="16" y1="160" x2="160" y2="16"/>
			</g>
		</g>
		<line id="XMLID_890_" fill="none" stroke="#ffffff" stroke-width="0.2" stroke-miterlimit="10" x1="176" y1="8" x2="0" y2="8"/>
		<line id="XMLID_891_" fill="none" stroke="#ffffff" stroke-width="0.2" stroke-miterlimit="10" x1="8" y1="176" x2="8" y2="0"/>
		<line id="XMLID_892_" fill="none" stroke="#ffffff" stroke-width="0.2" stroke-miterlimit="10" x1="16" y1="176" x2="16" y2="0"/>
		<line id="XMLID_893_" fill="none" stroke="#ffffff" stroke-width="0.2" stroke-miterlimit="10" x1="24" y1="176" x2="24" y2="0"/>
		<line id="XMLID_894_" fill="none" stroke="#ffffff" stroke-width="0.2" stroke-miterlimit="10" x1="32" y1="176" x2="32" y2="0"/>
		<line id="XMLID_895_" fill="none" stroke="#ffffff" stroke-width="0.2" stroke-miterlimit="10" x1="40" y1="176" x2="40" y2="0"/>
		<line id="XMLID_896_" fill="none" stroke="#ffffff" stroke-width="0.2" stroke-miterlimit="10" x1="48" y1="176" x2="48" y2="0"/>
		<line id="XMLID_897_" fill="none" stroke="#ffffff" stroke-width="0.2" stroke-miterlimit="10" x1="56" y1="176" x2="56" y2="0"/>
		<line id="XMLID_898_" fill="none" stroke="#ffffff" stroke-width="0.2" stroke-miterlimit="10" x1="64" y1="176" x2="64" y2="0"/>
		<line id="XMLID_899_" fill="none" stroke="#ffffff" stroke-width="0.2" stroke-miterlimit="10" x1="72" y1="176" x2="72" y2="0"/>
		<line id="XMLID_900_" fill="none" stroke="#ffffff" stroke-width="0.2" stroke-miterlimit="10" x1="80" y1="176" x2="80" y2="0"/>
		<line id="XMLID_901_" fill="none" stroke="#ffffff" stroke-width="0.2" stroke-miterlimit="10" x1="88" y1="176" x2="88" y2="0"/>
		<line id="XMLID_902_" fill="none" stroke="#ffffff" stroke-width="0.2" stroke-miterlimit="10" x1="96" y1="176" x2="96" y2="0"/>
		
			<line id="XMLID_903_" fill="none" stroke="#ffffff" stroke-width="0.2" stroke-miterlimit="10" x1="104" y1="176" x2="104" y2="0"/>
		
			<line id="XMLID_904_" fill="none" stroke="#ffffff" stroke-width="0.2" stroke-miterlimit="10" x1="112" y1="176" x2="112" y2="0"/>
		
			<line id="XMLID_905_" fill="none" stroke="#ffffff" stroke-width="0.2" stroke-miterlimit="10" x1="120" y1="176" x2="120" y2="0"/>
		
			<line id="XMLID_906_" fill="none" stroke="#ffffff" stroke-width="0.2" stroke-miterlimit="10" x1="128" y1="176" x2="128" y2="0"/>
		
			<line id="XMLID_907_" fill="none" stroke="#ffffff" stroke-width="0.2" stroke-miterlimit="10" x1="136" y1="176" x2="136" y2="0"/>
		
			<line id="XMLID_908_" fill="none" stroke="#ffffff" stroke-width="0.2" stroke-miterlimit="10" x1="144" y1="176" x2="144" y2="0"/>
		
			<line id="XMLID_909_" fill="none" stroke="#ffffff" stroke-width="0.2" stroke-miterlimit="10" x1="152" y1="176" x2="152" y2="0"/>
		
			<line id="XMLID_910_" fill="none" stroke="#ffffff" stroke-width="0.2" stroke-miterlimit="10" x1="160" y1="176" x2="160" y2="0"/>
		
			<line id="XMLID_911_" fill="none" stroke="#ffffff" stroke-width="0.2" stroke-miterlimit="10" x1="168" y1="176" x2="168" y2="0"/>
		<line id="XMLID_912_" fill="none" stroke="#ffffff" stroke-width="0.2" stroke-miterlimit="10" x1="176" y1="16" x2="0" y2="16"/>
		<line id="XMLID_913_" fill="none" stroke="#ffffff" stroke-width="0.2" stroke-miterlimit="10" x1="176" y1="24" x2="0" y2="24"/>
		<line id="XMLID_914_" fill="none" stroke="#ffffff" stroke-width="0.2" stroke-miterlimit="10" x1="176" y1="32" x2="0" y2="32"/>
		<line id="XMLID_915_" fill="none" stroke="#ffffff" stroke-width="0.2" stroke-miterlimit="10" x1="176" y1="40" x2="0" y2="40"/>
		<line id="XMLID_916_" fill="none" stroke="#ffffff" stroke-width="0.2" stroke-miterlimit="10" x1="176" y1="48" x2="0" y2="48"/>
		<line id="XMLID_917_" fill="none" stroke="#ffffff" stroke-width="0.2" stroke-miterlimit="10" x1="176" y1="56" x2="0" y2="56"/>
		<line id="XMLID_918_" fill="none" stroke="#ffffff" stroke-width="0.2" stroke-miterlimit="10" x1="176" y1="64" x2="0" y2="64"/>
		<line id="XMLID_919_" fill="none" stroke="#ffffff" stroke-width="0.2" stroke-miterlimit="10" x1="176" y1="72" x2="0" y2="72"/>
		<line id="XMLID_920_" fill="none" stroke="#ffffff" stroke-width="0.2" stroke-miterlimit="10" x1="176" y1="80" x2="0" y2="80"/>
		<line id="XMLID_921_" fill="none" stroke="#ffffff" stroke-width="0.2" stroke-miterlimit="10" x1="176" y1="88" x2="0" y2="88"/>
		<line id="XMLID_922_" fill="none" stroke="#ffffff" stroke-width="0.2" stroke-miterlimit="10" x1="176" y1="96" x2="0" y2="96"/>
		
			<line id="XMLID_923_" fill="none" stroke="#ffffff" stroke-width="0.2" stroke-miterlimit="10" x1="176" y1="104" x2="0" y2="104"/>
		
			<line id="XMLID_924_" fill="none" stroke="#ffffff" stroke-width="0.2" stroke-miterlimit="10" x1="176" y1="112" x2="0" y2="112"/>
		
			<line id="XMLID_925_" fill="none" stroke="#ffffff" stroke-width="0.2" stroke-miterlimit="10" x1="176" y1="120" x2="0" y2="120"/>
		
			<line id="XMLID_926_" fill="none" stroke="#ffffff" stroke-width="0.2" stroke-miterlimit="10" x1="176" y1="128" x2="0" y2="128"/>
		
			<line id="XMLID_927_" fill="none" stroke="#ffffff" stroke-width="0.2" stroke-miterlimit="10" x1="176" y1="136" x2="0" y2="136"/>
		
			<line id="XMLID_928_" fill="none" stroke="#ffffff" stroke-width="0.2" stroke-miterlimit="10" x1="176" y1="144" x2="0" y2="144"/>
		
			<line id="XMLID_929_" fill="none" stroke="#ffffff" stroke-width="0.2" stroke-miterlimit="10" x1="176" y1="152" x2="0" y2="152"/>
		
			<line id="XMLID_930_" fill="none" stroke="#ffffff" stroke-width="0.2" stroke-miterlimit="10" x1="176" y1="160" x2="0" y2="160"/>
		
			<line id="XMLID_931_" fill="none" stroke="#ffffff" stroke-width="0.2" stroke-miterlimit="10" x1="176" y1="168" x2="0" y2="168"/>
		<rect id="XMLID_932_" fill="none" stroke="#ffffff" stroke-width="0.2" stroke-miterlimit="10" width="176" height="176"/>
	</g>
</g>
<g id="ICON">
	
		<line id="XMLID_3_" fill="none" stroke="#AFAFAF" stroke-width="8" stroke-linecap="round" stroke-linejoin="round" stroke-miterlimit="10" x1="152" y1="100" x2="22" y2="100"/>
	
		<line id="XMLID_5_" fill="none" stroke="#AFAFAF" stroke-width="8" stroke-linecap="round" stroke-linejoin="round" stroke-miterlimit="10" x1="124" y1="92" x2="124" y2="108"/>
	
		<line id="XMLID_2_" fill="none" stroke="#AFAFAF" stroke-width="8" stroke-linecap="round" stroke-linejoin="round" stroke-miterlimit="10" x1="52" y1="92" x2="52" y2="108"/>
	<path fill="none" stroke="#AFAFAF" stroke-width="8" stroke-linecap="round" stroke-linejoin="round" stroke-miterlimit="10" d="
		M52.4,60 M123,60H52.4H29.3c-5.2,0-9.3,3.7-9.3,8.4v79.2c0,4.7,4.1,8.4,9.3,8.4h117.5c5.2,0,9.3-3.7,9.3-8.4V68.4
		c0-4.7-4.1-8.4-9.3-8.4h-22.9"/>
	<path fill="none" stroke="#AFAFAF" stroke-width="8" stroke-linecap="round" stroke-linejoin="round" stroke-miterlimit="10" d="
		M124,40v-7.9c0-6.8-5.8-12.1-13.2-12.1H65.2C57.8,20,52,25.4,52,32.1V40"/>
</g>
</svg>
