<?xml version="1.0" encoding="utf-8"?>
<!-- Generator: Adobe Illustrator 18.1.0, SVG Export Plug-In . SVG Version: 6.00 Build 0)  -->
<svg version="1.1" xmlns="http://www.w3.org/2000/svg" xmlns:xlink="http://www.w3.org/1999/xlink" x="0px" y="0px"
	 viewBox="0 0 176 176" enable-background="new 0 0 176 176" width="176" height="176" xml:space="preserve">
<g id="Master_vodafone_icon_grid" display="none">
	<g id="XMLID_1_" display="inline">
		<path id="XMLID_877_" fill="#ffffff" d="M176,176H0V0h176V176z M160,16H16v144h144V16z"/>
		
			<line id="XMLID_881_" fill="none" stroke="#ffffff" stroke-width="0.4" stroke-linecap="round" stroke-miterlimit="10" x1="16" y1="88" x2="160" y2="88"/>
		<g id="XMLID_882_">
			
				<rect id="XMLID_883_" x="16" y="16" fill="none" stroke="#ffffff" stroke-width="0.4" stroke-miterlimit="10" width="144" height="144"/>
			
				<circle id="XMLID_884_" fill="none" stroke="#ffffff" stroke-width="0.4" stroke-linecap="round" stroke-miterlimit="10" cx="88" cy="88" r="72"/>
			
				<line id="XMLID_885_" fill="none" stroke="#ffffff" stroke-width="0.4" stroke-linecap="round" stroke-miterlimit="10" x1="88" y1="16" x2="88" y2="160"/>
			<g id="XMLID_886_">
				
					<line id="XMLID_887_" fill="none" stroke="#ffffff" stroke-width="0.4" stroke-linecap="round" stroke-miterlimit="10" x1="16" y1="16" x2="160" y2="160"/>
				
					<line id="XMLID_888_" fill="none" stroke="#ffffff" stroke-width="0.4" stroke-linecap="round" stroke-miterlimit="10" x1="16" y1="160" x2="160" y2="16"/>
			</g>
		</g>
		<line id="XMLID_890_" fill="none" stroke="#ffffff" stroke-width="0.2" stroke-miterlimit="10" x1="176" y1="8" x2="0" y2="8"/>
		<line id="XMLID_891_" fill="none" stroke="#ffffff" stroke-width="0.2" stroke-miterlimit="10" x1="8" y1="176" x2="8" y2="0"/>
		<line id="XMLID_892_" fill="none" stroke="#ffffff" stroke-width="0.2" stroke-miterlimit="10" x1="16" y1="176" x2="16" y2="0"/>
		<line id="XMLID_893_" fill="none" stroke="#ffffff" stroke-width="0.2" stroke-miterlimit="10" x1="24" y1="176" x2="24" y2="0"/>
		<line id="XMLID_894_" fill="none" stroke="#ffffff" stroke-width="0.2" stroke-miterlimit="10" x1="32" y1="176" x2="32" y2="0"/>
		<line id="XMLID_895_" fill="none" stroke="#ffffff" stroke-width="0.2" stroke-miterlimit="10" x1="40" y1="176" x2="40" y2="0"/>
		<line id="XMLID_896_" fill="none" stroke="#ffffff" stroke-width="0.2" stroke-miterlimit="10" x1="48" y1="176" x2="48" y2="0"/>
		<line id="XMLID_897_" fill="none" stroke="#ffffff" stroke-width="0.2" stroke-miterlimit="10" x1="56" y1="176" x2="56" y2="0"/>
		<line id="XMLID_898_" fill="none" stroke="#ffffff" stroke-width="0.2" stroke-miterlimit="10" x1="64" y1="176" x2="64" y2="0"/>
		<line id="XMLID_899_" fill="none" stroke="#ffffff" stroke-width="0.2" stroke-miterlimit="10" x1="72" y1="176" x2="72" y2="0"/>
		<line id="XMLID_900_" fill="none" stroke="#ffffff" stroke-width="0.2" stroke-miterlimit="10" x1="80" y1="176" x2="80" y2="0"/>
		<line id="XMLID_901_" fill="none" stroke="#ffffff" stroke-width="0.2" stroke-miterlimit="10" x1="88" y1="176" x2="88" y2="0"/>
		<line id="XMLID_902_" fill="none" stroke="#ffffff" stroke-width="0.2" stroke-miterlimit="10" x1="96" y1="176" x2="96" y2="0"/>
		
			<line id="XMLID_903_" fill="none" stroke="#ffffff" stroke-width="0.2" stroke-miterlimit="10" x1="104" y1="176" x2="104" y2="0"/>
		
			<line id="XMLID_904_" fill="none" stroke="#ffffff" stroke-width="0.2" stroke-miterlimit="10" x1="112" y1="176" x2="112" y2="0"/>
		
			<line id="XMLID_905_" fill="none" stroke="#ffffff" stroke-width="0.2" stroke-miterlimit="10" x1="120" y1="176" x2="120" y2="0"/>
		
			<line id="XMLID_906_" fill="none" stroke="#ffffff" stroke-width="0.2" stroke-miterlimit="10" x1="128" y1="176" x2="128" y2="0"/>
		
			<line id="XMLID_907_" fill="none" stroke="#ffffff" stroke-width="0.2" stroke-miterlimit="10" x1="136" y1="176" x2="136" y2="0"/>
		
			<line id="XMLID_908_" fill="none" stroke="#ffffff" stroke-width="0.2" stroke-miterlimit="10" x1="144" y1="176" x2="144" y2="0"/>
		
			<line id="XMLID_909_" fill="none" stroke="#ffffff" stroke-width="0.2" stroke-miterlimit="10" x1="152" y1="176" x2="152" y2="0"/>
		
			<line id="XMLID_910_" fill="none" stroke="#ffffff" stroke-width="0.2" stroke-miterlimit="10" x1="160" y1="176" x2="160" y2="0"/>
		
			<line id="XMLID_911_" fill="none" stroke="#ffffff" stroke-width="0.2" stroke-miterlimit="10" x1="168" y1="176" x2="168" y2="0"/>
		<line id="XMLID_912_" fill="none" stroke="#ffffff" stroke-width="0.2" stroke-miterlimit="10" x1="176" y1="16" x2="0" y2="16"/>
		<line id="XMLID_913_" fill="none" stroke="#ffffff" stroke-width="0.2" stroke-miterlimit="10" x1="176" y1="24" x2="0" y2="24"/>
		<line id="XMLID_914_" fill="none" stroke="#ffffff" stroke-width="0.2" stroke-miterlimit="10" x1="176" y1="32" x2="0" y2="32"/>
		<line id="XMLID_915_" fill="none" stroke="#ffffff" stroke-width="0.2" stroke-miterlimit="10" x1="176" y1="40" x2="0" y2="40"/>
		<line id="XMLID_916_" fill="none" stroke="#ffffff" stroke-width="0.2" stroke-miterlimit="10" x1="176" y1="48" x2="0" y2="48"/>
		<line id="XMLID_917_" fill="none" stroke="#ffffff" stroke-width="0.2" stroke-miterlimit="10" x1="176" y1="56" x2="0" y2="56"/>
		<line id="XMLID_918_" fill="none" stroke="#ffffff" stroke-width="0.2" stroke-miterlimit="10" x1="176" y1="64" x2="0" y2="64"/>
		<line id="XMLID_919_" fill="none" stroke="#ffffff" stroke-width="0.2" stroke-miterlimit="10" x1="176" y1="72" x2="0" y2="72"/>
		<line id="XMLID_920_" fill="none" stroke="#ffffff" stroke-width="0.2" stroke-miterlimit="10" x1="176" y1="80" x2="0" y2="80"/>
		<line id="XMLID_921_" fill="none" stroke="#ffffff" stroke-width="0.2" stroke-miterlimit="10" x1="176" y1="88" x2="0" y2="88"/>
		<line id="XMLID_922_" fill="none" stroke="#ffffff" stroke-width="0.2" stroke-miterlimit="10" x1="176" y1="96" x2="0" y2="96"/>
		
			<line id="XMLID_923_" fill="none" stroke="#ffffff" stroke-width="0.2" stroke-miterlimit="10" x1="176" y1="104" x2="0" y2="104"/>
		
			<line id="XMLID_924_" fill="none" stroke="#ffffff" stroke-width="0.2" stroke-miterlimit="10" x1="176" y1="112" x2="0" y2="112"/>
		
			<line id="XMLID_925_" fill="none" stroke="#ffffff" stroke-width="0.2" stroke-miterlimit="10" x1="176" y1="120" x2="0" y2="120"/>
		
			<line id="XMLID_926_" fill="none" stroke="#ffffff" stroke-width="0.2" stroke-miterlimit="10" x1="176" y1="128" x2="0" y2="128"/>
		
			<line id="XMLID_927_" fill="none" stroke="#ffffff" stroke-width="0.2" stroke-miterlimit="10" x1="176" y1="136" x2="0" y2="136"/>
		
			<line id="XMLID_928_" fill="none" stroke="#ffffff" stroke-width="0.2" stroke-miterlimit="10" x1="176" y1="144" x2="0" y2="144"/>
		
			<line id="XMLID_929_" fill="none" stroke="#ffffff" stroke-width="0.2" stroke-miterlimit="10" x1="176" y1="152" x2="0" y2="152"/>
		
			<line id="XMLID_930_" fill="none" stroke="#ffffff" stroke-width="0.2" stroke-miterlimit="10" x1="176" y1="160" x2="0" y2="160"/>
		
			<line id="XMLID_931_" fill="none" stroke="#ffffff" stroke-width="0.2" stroke-miterlimit="10" x1="176" y1="168" x2="0" y2="168"/>
		<rect id="XMLID_932_" fill="none" stroke="#ffffff" stroke-width="0.2" stroke-miterlimit="10" width="176" height="176"/>
	</g>
</g>
<g id="ICON">
	<g id="XMLID_64_">
		<path id="XMLID_65_" fill="#AFAFAF" d="M63.9,86L63.9,86c-3.3,0-6-2.7-6-6c0-3.3,2.7-6,6-6c3.3,0,6,2.7,6,6
			C69.9,83.3,67.3,86,63.9,86z"/>
	</g>
	<g id="XMLID_2_">
		<path id="XMLID_3_" fill="#AFAFAF" d="M88,86L88,86c-3.3,0-6-2.7-6-6c0-3.3,2.7-6,6-6c3.3,0,6,2.7,6,6C94,83.3,91.3,86,88,86z"/>
	</g>
	<g id="XMLID_4_">
		<path id="XMLID_5_" fill="#AFAFAF" d="M112.1,86L112.1,86c-3.3,0-6-2.7-6-6c0-3.3,2.7-6,6-6c3.3,0,6,2.7,6,6
			C118.1,83.3,115.4,86,112.1,86z"/>
	</g>
	<path fill="none" stroke="#AFAFAF" stroke-width="8" stroke-linecap="round" stroke-linejoin="round" stroke-miterlimit="10" d="
		M97.5,131.5c33-3.6,58.5-25.7,58.5-51.5c0-28.2-30.4-52-68-52S20,51.8,20,80c0,16.2,10.1,31.1,25.9,40.7c1.3,0.8,2.7,1.6,4.1,2.3
		c-4,14.4-16.1,20.2-16.1,20.2c15.1,3.4,33.8-2.3,44.1-7.2"/>
</g>
</svg>
