<?xml version="1.0" encoding="iso-8859-1"?>
<!-- Generator: Adobe Illustrator 18.1.0, SVG Export Plug-In . SVG Version: 6.00 Build 0)  -->
<svg version="1.1" xmlns="http://www.w3.org/2000/svg" xmlns:xlink="http://www.w3.org/1999/xlink" x="0px" y="0px"
	 viewBox="0 0 176 176" style="enable-background:new 0 0 176 176;" xml:space="preserve">
<g id="Master_vodafone_icon_grid" style="display:none;">
	<path id="XMLID_54_" style="display:inline;fill:#F2F3F4;" d="M176,176.001H0V0h176V176.001z M160,16H16v144.001h144V16z"/>
	<g id="XMLID_45_" style="display:inline;">
		
			<line id="XMLID_53_" style="fill:none;stroke:#CDCBCA;stroke-width:0.4;stroke-linecap:round;stroke-miterlimit:10;" x1="16" y1="88" x2="160" y2="88"/>
		<g id="XMLID_46_">
			
				<rect id="XMLID_52_" x="16" y="16" style="fill:none;stroke:#CDCBCA;stroke-width:0.4;stroke-miterlimit:10;" width="144" height="144.001"/>
			
				<circle id="XMLID_51_" style="fill:none;stroke:#CDCBCA;stroke-width:0.4;stroke-linecap:round;stroke-miterlimit:10;" cx="88" cy="88" r="72"/>
			
				<line id="XMLID_50_" style="fill:none;stroke:#CDCBCA;stroke-width:0.4;stroke-linecap:round;stroke-miterlimit:10;" x1="88.043" y1="16" x2="88.043" y2="160.001"/>
			<g id="XMLID_47_">
				
					<line id="XMLID_49_" style="fill:none;stroke:#CDCBCA;stroke-width:0.4;stroke-linecap:round;stroke-miterlimit:10;" x1="16.043" y1="16.04" x2="160" y2="160.001"/>
				
					<line id="XMLID_48_" style="fill:none;stroke:#CDCBCA;stroke-width:0.4;stroke-linecap:round;stroke-miterlimit:10;" x1="16" y1="160.001" x2="160" y2="16"/>
			</g>
		</g>
	</g>
	<g id="XMLID_1_" style="display:inline;">
		<line id="XMLID_44_" style="fill:none;stroke:#CDCBCA;stroke-width:0.2;stroke-miterlimit:10;" x1="176" y1="8" x2="0" y2="8"/>
		
			<line id="XMLID_43_" style="fill:none;stroke:#CDCBCA;stroke-width:0.2;stroke-miterlimit:10;" x1="8" y1="176.001" x2="8" y2="0"/>
		
			<line id="XMLID_42_" style="fill:none;stroke:#CDCBCA;stroke-width:0.2;stroke-miterlimit:10;" x1="16" y1="176.001" x2="16" y2="0"/>
		
			<line id="XMLID_41_" style="fill:none;stroke:#CDCBCA;stroke-width:0.2;stroke-miterlimit:10;" x1="24" y1="176.001" x2="24" y2="0"/>
		
			<line id="XMLID_40_" style="fill:none;stroke:#CDCBCA;stroke-width:0.2;stroke-miterlimit:10;" x1="32" y1="176.001" x2="32" y2="0"/>
		
			<line id="XMLID_39_" style="fill:none;stroke:#CDCBCA;stroke-width:0.2;stroke-miterlimit:10;" x1="40" y1="176.001" x2="40" y2="0"/>
		
			<line id="XMLID_38_" style="fill:none;stroke:#CDCBCA;stroke-width:0.2;stroke-miterlimit:10;" x1="48" y1="176.001" x2="48" y2="0"/>
		
			<line id="XMLID_37_" style="fill:none;stroke:#CDCBCA;stroke-width:0.2;stroke-miterlimit:10;" x1="56" y1="176.001" x2="56" y2="0"/>
		
			<line id="XMLID_36_" style="fill:none;stroke:#CDCBCA;stroke-width:0.2;stroke-miterlimit:10;" x1="64" y1="176.001" x2="64" y2="0"/>
		
			<line id="XMLID_35_" style="fill:none;stroke:#CDCBCA;stroke-width:0.2;stroke-miterlimit:10;" x1="72" y1="176.001" x2="72" y2="0"/>
		
			<line id="XMLID_34_" style="fill:none;stroke:#CDCBCA;stroke-width:0.2;stroke-miterlimit:10;" x1="80" y1="176.001" x2="80" y2="0"/>
		
			<line id="XMLID_33_" style="fill:none;stroke:#CDCBCA;stroke-width:0.2;stroke-miterlimit:10;" x1="88" y1="176.001" x2="88" y2="0"/>
		
			<line id="XMLID_32_" style="fill:none;stroke:#CDCBCA;stroke-width:0.2;stroke-miterlimit:10;" x1="96" y1="176.001" x2="96" y2="0"/>
		
			<line id="XMLID_31_" style="fill:none;stroke:#CDCBCA;stroke-width:0.2;stroke-miterlimit:10;" x1="104" y1="176.001" x2="104" y2="0"/>
		
			<line id="XMLID_30_" style="fill:none;stroke:#CDCBCA;stroke-width:0.2;stroke-miterlimit:10;" x1="112" y1="176.001" x2="112" y2="0"/>
		
			<line id="XMLID_29_" style="fill:none;stroke:#CDCBCA;stroke-width:0.2;stroke-miterlimit:10;" x1="120" y1="176.001" x2="120" y2="0"/>
		
			<line id="XMLID_28_" style="fill:none;stroke:#CDCBCA;stroke-width:0.2;stroke-miterlimit:10;" x1="128" y1="176.001" x2="128" y2="0"/>
		
			<line id="XMLID_27_" style="fill:none;stroke:#CDCBCA;stroke-width:0.2;stroke-miterlimit:10;" x1="136" y1="176.001" x2="136" y2="0"/>
		
			<line id="XMLID_26_" style="fill:none;stroke:#CDCBCA;stroke-width:0.2;stroke-miterlimit:10;" x1="144" y1="176.001" x2="144" y2="0"/>
		
			<line id="XMLID_25_" style="fill:none;stroke:#CDCBCA;stroke-width:0.2;stroke-miterlimit:10;" x1="152" y1="176.001" x2="152" y2="0"/>
		
			<line id="XMLID_24_" style="fill:none;stroke:#CDCBCA;stroke-width:0.2;stroke-miterlimit:10;" x1="160" y1="176.001" x2="160" y2="0"/>
		
			<line id="XMLID_23_" style="fill:none;stroke:#CDCBCA;stroke-width:0.2;stroke-miterlimit:10;" x1="168" y1="176.001" x2="168" y2="0"/>
		<line id="XMLID_22_" style="fill:none;stroke:#CDCBCA;stroke-width:0.2;stroke-miterlimit:10;" x1="176" y1="16" x2="0" y2="16"/>
		<line id="XMLID_21_" style="fill:none;stroke:#CDCBCA;stroke-width:0.2;stroke-miterlimit:10;" x1="176" y1="24" x2="0" y2="24"/>
		<line id="XMLID_20_" style="fill:none;stroke:#CDCBCA;stroke-width:0.2;stroke-miterlimit:10;" x1="176" y1="32" x2="0" y2="32"/>
		<line id="XMLID_19_" style="fill:none;stroke:#CDCBCA;stroke-width:0.2;stroke-miterlimit:10;" x1="176" y1="40" x2="0" y2="40"/>
		<line id="XMLID_18_" style="fill:none;stroke:#CDCBCA;stroke-width:0.2;stroke-miterlimit:10;" x1="176" y1="48" x2="0" y2="48"/>
		<line id="XMLID_17_" style="fill:none;stroke:#CDCBCA;stroke-width:0.2;stroke-miterlimit:10;" x1="176" y1="56" x2="0" y2="56"/>
		<line id="XMLID_16_" style="fill:none;stroke:#CDCBCA;stroke-width:0.2;stroke-miterlimit:10;" x1="176" y1="64" x2="0" y2="64"/>
		<line id="XMLID_15_" style="fill:none;stroke:#CDCBCA;stroke-width:0.2;stroke-miterlimit:10;" x1="176" y1="72" x2="0" y2="72"/>
		<line id="XMLID_14_" style="fill:none;stroke:#CDCBCA;stroke-width:0.2;stroke-miterlimit:10;" x1="176" y1="80" x2="0" y2="80"/>
		<line id="XMLID_13_" style="fill:none;stroke:#CDCBCA;stroke-width:0.2;stroke-miterlimit:10;" x1="176" y1="88" x2="0" y2="88"/>
		<line id="XMLID_12_" style="fill:none;stroke:#CDCBCA;stroke-width:0.2;stroke-miterlimit:10;" x1="176" y1="96" x2="0" y2="96"/>
		
			<line id="XMLID_11_" style="fill:none;stroke:#CDCBCA;stroke-width:0.2;stroke-miterlimit:10;" x1="176" y1="104" x2="0" y2="104"/>
		
			<line id="XMLID_10_" style="fill:none;stroke:#CDCBCA;stroke-width:0.2;stroke-miterlimit:10;" x1="176" y1="112" x2="0" y2="112"/>
		
			<line id="XMLID_9_" style="fill:none;stroke:#CDCBCA;stroke-width:0.2;stroke-miterlimit:10;" x1="176" y1="120" x2="0" y2="120"/>
		
			<line id="XMLID_8_" style="fill:none;stroke:#CDCBCA;stroke-width:0.2;stroke-miterlimit:10;" x1="176" y1="128.001" x2="0" y2="128.001"/>
		
			<line id="XMLID_7_" style="fill:none;stroke:#CDCBCA;stroke-width:0.2;stroke-miterlimit:10;" x1="176" y1="136.001" x2="0" y2="136.001"/>
		
			<line id="XMLID_6_" style="fill:none;stroke:#CDCBCA;stroke-width:0.2;stroke-miterlimit:10;" x1="176" y1="144.001" x2="0" y2="144.001"/>
		
			<line id="XMLID_5_" style="fill:none;stroke:#CDCBCA;stroke-width:0.2;stroke-miterlimit:10;" x1="176" y1="152.001" x2="0" y2="152.001"/>
		
			<line id="XMLID_4_" style="fill:none;stroke:#CDCBCA;stroke-width:0.2;stroke-miterlimit:10;" x1="176" y1="160.001" x2="0" y2="160.001"/>
		
			<line id="XMLID_3_" style="fill:none;stroke:#CDCBCA;stroke-width:0.2;stroke-miterlimit:10;" x1="176" y1="168.001" x2="0" y2="168.001"/>
		<rect id="XMLID_2_" style="fill:none;stroke:#CDCBCA;stroke-width:0.2;stroke-miterlimit:10;" width="176" height="176.001"/>
	</g>
</g>
<g id="ICON">
	
		<polyline id="XMLID_57_" style="fill:none;stroke:#6E6A69;stroke-width:8;stroke-linecap:round;stroke-linejoin:round;stroke-miterlimit:10;" points="
		28,118 88,58 148,118 	"/>
</g>
</svg>
