<?xml version="1.0" encoding="iso-8859-1"?>
<!-- Generator: Adobe Illustrator 18.1.0, SVG Export Plug-In . SVG Version: 6.00 Build 0)  -->
<svg version="1.1" xmlns="http://www.w3.org/2000/svg" xmlns:xlink="http://www.w3.org/1999/xlink" x="0px" y="0px"
	 viewBox="0 0 176 176" style="enable-background:new 0 0 176 176;" xml:space="preserve">
<g id="Master_vodafone_icon_grid" style="display:none;">
	<path id="XMLID_877_" style="display:inline;fill:#F2F3F4;" d="M176,176.001H0V0h176V176.001z M160,16H16v144.001h144V16z"/>
	<g id="XMLID_880_" style="display:inline;">
		
			<line id="XMLID_881_" style="fill:none;stroke:#CDCBCA;stroke-width:0.4;stroke-linecap:round;stroke-miterlimit:10;" x1="16" y1="88" x2="160" y2="88"/>
		<g id="XMLID_882_">
			
				<rect id="XMLID_883_" x="16" y="16" style="fill:none;stroke:#CDCBCA;stroke-width:0.4;stroke-miterlimit:10;" width="144" height="144.001"/>
			
				<circle id="XMLID_884_" style="fill:none;stroke:#CDCBCA;stroke-width:0.4;stroke-linecap:round;stroke-miterlimit:10;" cx="88" cy="88" r="72"/>
			
				<line id="XMLID_885_" style="fill:none;stroke:#CDCBCA;stroke-width:0.4;stroke-linecap:round;stroke-miterlimit:10;" x1="88.043" y1="16" x2="88.043" y2="160.001"/>
			<g id="XMLID_886_">
				
					<line id="XMLID_887_" style="fill:none;stroke:#CDCBCA;stroke-width:0.4;stroke-linecap:round;stroke-miterlimit:10;" x1="16.043" y1="16.04" x2="160" y2="160.001"/>
				
					<line id="XMLID_888_" style="fill:none;stroke:#CDCBCA;stroke-width:0.4;stroke-linecap:round;stroke-miterlimit:10;" x1="16" y1="160.001" x2="160" y2="16"/>
			</g>
		</g>
	</g>
	<g id="XMLID_889_" style="display:inline;">
		<line id="XMLID_890_" style="fill:none;stroke:#CDCBCA;stroke-width:0.2;stroke-miterlimit:10;" x1="176" y1="8" x2="0" y2="8"/>
		
			<line id="XMLID_891_" style="fill:none;stroke:#CDCBCA;stroke-width:0.2;stroke-miterlimit:10;" x1="8" y1="176.001" x2="8" y2="0"/>
		
			<line id="XMLID_892_" style="fill:none;stroke:#CDCBCA;stroke-width:0.2;stroke-miterlimit:10;" x1="16" y1="176.001" x2="16" y2="0"/>
		
			<line id="XMLID_893_" style="fill:none;stroke:#CDCBCA;stroke-width:0.2;stroke-miterlimit:10;" x1="24" y1="176.001" x2="24" y2="0"/>
		
			<line id="XMLID_894_" style="fill:none;stroke:#CDCBCA;stroke-width:0.2;stroke-miterlimit:10;" x1="32" y1="176.001" x2="32" y2="0"/>
		
			<line id="XMLID_895_" style="fill:none;stroke:#CDCBCA;stroke-width:0.2;stroke-miterlimit:10;" x1="40" y1="176.001" x2="40" y2="0"/>
		
			<line id="XMLID_896_" style="fill:none;stroke:#CDCBCA;stroke-width:0.2;stroke-miterlimit:10;" x1="48" y1="176.001" x2="48" y2="0"/>
		
			<line id="XMLID_897_" style="fill:none;stroke:#CDCBCA;stroke-width:0.2;stroke-miterlimit:10;" x1="56" y1="176.001" x2="56" y2="0"/>
		
			<line id="XMLID_898_" style="fill:none;stroke:#CDCBCA;stroke-width:0.2;stroke-miterlimit:10;" x1="64" y1="176.001" x2="64" y2="0"/>
		
			<line id="XMLID_899_" style="fill:none;stroke:#CDCBCA;stroke-width:0.2;stroke-miterlimit:10;" x1="72" y1="176.001" x2="72" y2="0"/>
		
			<line id="XMLID_900_" style="fill:none;stroke:#CDCBCA;stroke-width:0.2;stroke-miterlimit:10;" x1="80" y1="176.001" x2="80" y2="0"/>
		
			<line id="XMLID_901_" style="fill:none;stroke:#CDCBCA;stroke-width:0.2;stroke-miterlimit:10;" x1="88" y1="176.001" x2="88" y2="0"/>
		
			<line id="XMLID_902_" style="fill:none;stroke:#CDCBCA;stroke-width:0.2;stroke-miterlimit:10;" x1="96" y1="176.001" x2="96" y2="0"/>
		
			<line id="XMLID_903_" style="fill:none;stroke:#CDCBCA;stroke-width:0.2;stroke-miterlimit:10;" x1="104" y1="176.001" x2="104" y2="0"/>
		
			<line id="XMLID_904_" style="fill:none;stroke:#CDCBCA;stroke-width:0.2;stroke-miterlimit:10;" x1="112" y1="176.001" x2="112" y2="0"/>
		
			<line id="XMLID_905_" style="fill:none;stroke:#CDCBCA;stroke-width:0.2;stroke-miterlimit:10;" x1="120" y1="176.001" x2="120" y2="0"/>
		
			<line id="XMLID_906_" style="fill:none;stroke:#CDCBCA;stroke-width:0.2;stroke-miterlimit:10;" x1="128" y1="176.001" x2="128" y2="0"/>
		
			<line id="XMLID_907_" style="fill:none;stroke:#CDCBCA;stroke-width:0.2;stroke-miterlimit:10;" x1="136" y1="176.001" x2="136" y2="0"/>
		
			<line id="XMLID_908_" style="fill:none;stroke:#CDCBCA;stroke-width:0.2;stroke-miterlimit:10;" x1="144" y1="176.001" x2="144" y2="0"/>
		
			<line id="XMLID_909_" style="fill:none;stroke:#CDCBCA;stroke-width:0.2;stroke-miterlimit:10;" x1="152" y1="176.001" x2="152" y2="0"/>
		
			<line id="XMLID_910_" style="fill:none;stroke:#CDCBCA;stroke-width:0.2;stroke-miterlimit:10;" x1="160" y1="176.001" x2="160" y2="0"/>
		
			<line id="XMLID_911_" style="fill:none;stroke:#CDCBCA;stroke-width:0.2;stroke-miterlimit:10;" x1="168" y1="176.001" x2="168" y2="0"/>
		
			<line id="XMLID_912_" style="fill:none;stroke:#CDCBCA;stroke-width:0.2;stroke-miterlimit:10;" x1="176" y1="16" x2="0" y2="16"/>
		
			<line id="XMLID_913_" style="fill:none;stroke:#CDCBCA;stroke-width:0.2;stroke-miterlimit:10;" x1="176" y1="24" x2="0" y2="24"/>
		
			<line id="XMLID_914_" style="fill:none;stroke:#CDCBCA;stroke-width:0.2;stroke-miterlimit:10;" x1="176" y1="32" x2="0" y2="32"/>
		
			<line id="XMLID_915_" style="fill:none;stroke:#CDCBCA;stroke-width:0.2;stroke-miterlimit:10;" x1="176" y1="40" x2="0" y2="40"/>
		
			<line id="XMLID_916_" style="fill:none;stroke:#CDCBCA;stroke-width:0.2;stroke-miterlimit:10;" x1="176" y1="48" x2="0" y2="48"/>
		
			<line id="XMLID_917_" style="fill:none;stroke:#CDCBCA;stroke-width:0.2;stroke-miterlimit:10;" x1="176" y1="56" x2="0" y2="56"/>
		
			<line id="XMLID_918_" style="fill:none;stroke:#CDCBCA;stroke-width:0.2;stroke-miterlimit:10;" x1="176" y1="64" x2="0" y2="64"/>
		
			<line id="XMLID_919_" style="fill:none;stroke:#CDCBCA;stroke-width:0.2;stroke-miterlimit:10;" x1="176" y1="72" x2="0" y2="72"/>
		
			<line id="XMLID_920_" style="fill:none;stroke:#CDCBCA;stroke-width:0.2;stroke-miterlimit:10;" x1="176" y1="80" x2="0" y2="80"/>
		
			<line id="XMLID_921_" style="fill:none;stroke:#CDCBCA;stroke-width:0.2;stroke-miterlimit:10;" x1="176" y1="88" x2="0" y2="88"/>
		
			<line id="XMLID_922_" style="fill:none;stroke:#CDCBCA;stroke-width:0.2;stroke-miterlimit:10;" x1="176" y1="96" x2="0" y2="96"/>
		
			<line id="XMLID_923_" style="fill:none;stroke:#CDCBCA;stroke-width:0.2;stroke-miterlimit:10;" x1="176" y1="104" x2="0" y2="104"/>
		
			<line id="XMLID_924_" style="fill:none;stroke:#CDCBCA;stroke-width:0.2;stroke-miterlimit:10;" x1="176" y1="112" x2="0" y2="112"/>
		
			<line id="XMLID_925_" style="fill:none;stroke:#CDCBCA;stroke-width:0.2;stroke-miterlimit:10;" x1="176" y1="120" x2="0" y2="120"/>
		
			<line id="XMLID_926_" style="fill:none;stroke:#CDCBCA;stroke-width:0.2;stroke-miterlimit:10;" x1="176" y1="128.001" x2="0" y2="128.001"/>
		
			<line id="XMLID_927_" style="fill:none;stroke:#CDCBCA;stroke-width:0.2;stroke-miterlimit:10;" x1="176" y1="136.001" x2="0" y2="136.001"/>
		
			<line id="XMLID_928_" style="fill:none;stroke:#CDCBCA;stroke-width:0.2;stroke-miterlimit:10;" x1="176" y1="144.001" x2="0" y2="144.001"/>
		
			<line id="XMLID_929_" style="fill:none;stroke:#CDCBCA;stroke-width:0.2;stroke-miterlimit:10;" x1="176" y1="152.001" x2="0" y2="152.001"/>
		
			<line id="XMLID_930_" style="fill:none;stroke:#CDCBCA;stroke-width:0.2;stroke-miterlimit:10;" x1="176" y1="160.001" x2="0" y2="160.001"/>
		
			<line id="XMLID_931_" style="fill:none;stroke:#CDCBCA;stroke-width:0.2;stroke-miterlimit:10;" x1="176" y1="168.001" x2="0" y2="168.001"/>
		<rect id="XMLID_932_" style="fill:none;stroke:#CDCBCA;stroke-width:0.2;stroke-miterlimit:10;" width="176" height="176.001"/>
	</g>
</g>
<g id="ICON">
	<g id="XMLID_59_">
		
			<path id="XMLID_3_" style="fill:none;stroke:#333333;stroke-width:8;stroke-linecap:round;stroke-linejoin:round;stroke-miterlimit:10;" d="
			M139.99,108.586"/>
		
			<path id="XMLID_4_" style="fill:none;stroke:#333333;stroke-width:8;stroke-linecap:round;stroke-linejoin:round;stroke-miterlimit:10;" d="
			M95.978,151.987"/>
	</g>
	<g id="XMLID_7_">
		
			<path id="XMLID_11_" style="fill:none;stroke:#333333;stroke-width:8;stroke-linecap:round;stroke-linejoin:round;stroke-miterlimit:10;" d="
			M67.415,139.99"/>
		
			<path id="XMLID_10_" style="fill:none;stroke:#333333;stroke-width:8;stroke-linecap:round;stroke-linejoin:round;stroke-miterlimit:10;" d="
			M24.014,95.978"/>
	</g>
	
		<polyline style="fill:none;stroke:#333333;stroke-width:8;stroke-linecap:round;stroke-linejoin:round;stroke-miterlimit:10;" points="
		136,88 88,88 88,40 	"/>
	
		<path id="XMLID_2551_" style="fill:none;stroke:#333333;stroke-width:8;stroke-linecap:round;stroke-linejoin:round;stroke-miterlimit:10;" d="
		M47.465,142.595c2.942,2.258,5.217,3.624,8.6,5.423c33.149,17.638,74.317,5.064,91.955-28.083
		c17.637-33.148,5.064-74.317-28.085-91.955c-33.147-17.637-74.316-5.062-91.953,28.085c-12.724,23.914-9.726,52.002,5.38,72.416"/>
	
		<line id="XMLID_6_" style="fill:none;stroke:#333333;stroke-width:8;stroke-linecap:round;stroke-linejoin:round;stroke-miterlimit:10;" x1="88" y1="136" x2="88" y2="128"/>
	
		<line id="XMLID_5_" style="fill:none;stroke:#333333;stroke-width:8;stroke-linecap:round;stroke-linejoin:round;stroke-miterlimit:10;" x1="40" y1="88" x2="48" y2="88"/>
</g>
</svg>
