<?xml version="1.0" encoding="utf-8"?>
<!-- Generator: Adobe Illustrator 18.1.0, SVG Export Plug-In . SVG Version: 6.00 Build 0)  -->
<svg version="1.1" xmlns="http://www.w3.org/2000/svg" xmlns:xlink="http://www.w3.org/1999/xlink" x="0px" y="0px"
	 viewBox="0 0 176 176" enable-background="new 0 0 176 176" width="176" height="176" xml:space="preserve">
<g id="Master_vodafone_icon_grid" display="none">
	<path id="XMLID_877_" display="inline" fill="#F2F3F4" d="M176,176H0V0h176V176z M160,16H16v144h144V16z"/>
	<g id="XMLID_880_" display="inline">
		
			<line id="XMLID_881_" fill="none" stroke="#ffffff" stroke-width="0.4" stroke-linecap="round" stroke-miterlimit="10" x1="16" y1="88" x2="160" y2="88"/>
		<g id="XMLID_882_">
			
				<rect id="XMLID_883_" x="16" y="16" fill="none" stroke="#ffffff" stroke-width="0.4" stroke-miterlimit="10" width="144" height="144"/>
			
				<circle id="XMLID_884_" fill="none" stroke="#ffffff" stroke-width="0.4" stroke-linecap="round" stroke-miterlimit="10" cx="88" cy="88" r="72"/>
			
				<line id="XMLID_885_" fill="none" stroke="#ffffff" stroke-width="0.4" stroke-linecap="round" stroke-miterlimit="10" x1="88" y1="16" x2="88" y2="160"/>
			<g id="XMLID_886_">
				
					<line id="XMLID_887_" fill="none" stroke="#ffffff" stroke-width="0.4" stroke-linecap="round" stroke-miterlimit="10" x1="16" y1="16" x2="160" y2="160"/>
				
					<line id="XMLID_888_" fill="none" stroke="#ffffff" stroke-width="0.4" stroke-linecap="round" stroke-miterlimit="10" x1="16" y1="160" x2="160" y2="16"/>
			</g>
		</g>
	</g>
	<g id="XMLID_889_" display="inline">
		<line id="XMLID_890_" fill="none" stroke="#ffffff" stroke-width="0.2" stroke-miterlimit="10" x1="176" y1="8" x2="0" y2="8"/>
		<line id="XMLID_891_" fill="none" stroke="#ffffff" stroke-width="0.2" stroke-miterlimit="10" x1="8" y1="176" x2="8" y2="0"/>
		<line id="XMLID_892_" fill="none" stroke="#ffffff" stroke-width="0.2" stroke-miterlimit="10" x1="16" y1="176" x2="16" y2="0"/>
		<line id="XMLID_893_" fill="none" stroke="#ffffff" stroke-width="0.2" stroke-miterlimit="10" x1="24" y1="176" x2="24" y2="0"/>
		<line id="XMLID_894_" fill="none" stroke="#ffffff" stroke-width="0.2" stroke-miterlimit="10" x1="32" y1="176" x2="32" y2="0"/>
		<line id="XMLID_895_" fill="none" stroke="#ffffff" stroke-width="0.2" stroke-miterlimit="10" x1="40" y1="176" x2="40" y2="0"/>
		<line id="XMLID_896_" fill="none" stroke="#ffffff" stroke-width="0.2" stroke-miterlimit="10" x1="48" y1="176" x2="48" y2="0"/>
		<line id="XMLID_897_" fill="none" stroke="#ffffff" stroke-width="0.2" stroke-miterlimit="10" x1="56" y1="176" x2="56" y2="0"/>
		<line id="XMLID_898_" fill="none" stroke="#ffffff" stroke-width="0.2" stroke-miterlimit="10" x1="64" y1="176" x2="64" y2="0"/>
		<line id="XMLID_899_" fill="none" stroke="#ffffff" stroke-width="0.2" stroke-miterlimit="10" x1="72" y1="176" x2="72" y2="0"/>
		<line id="XMLID_900_" fill="none" stroke="#ffffff" stroke-width="0.2" stroke-miterlimit="10" x1="80" y1="176" x2="80" y2="0"/>
		<line id="XMLID_901_" fill="none" stroke="#ffffff" stroke-width="0.2" stroke-miterlimit="10" x1="88" y1="176" x2="88" y2="0"/>
		<line id="XMLID_902_" fill="none" stroke="#ffffff" stroke-width="0.2" stroke-miterlimit="10" x1="96" y1="176" x2="96" y2="0"/>
		
			<line id="XMLID_903_" fill="none" stroke="#ffffff" stroke-width="0.2" stroke-miterlimit="10" x1="104" y1="176" x2="104" y2="0"/>
		
			<line id="XMLID_904_" fill="none" stroke="#ffffff" stroke-width="0.2" stroke-miterlimit="10" x1="112" y1="176" x2="112" y2="0"/>
		
			<line id="XMLID_905_" fill="none" stroke="#ffffff" stroke-width="0.2" stroke-miterlimit="10" x1="120" y1="176" x2="120" y2="0"/>
		
			<line id="XMLID_906_" fill="none" stroke="#ffffff" stroke-width="0.2" stroke-miterlimit="10" x1="128" y1="176" x2="128" y2="0"/>
		
			<line id="XMLID_907_" fill="none" stroke="#ffffff" stroke-width="0.2" stroke-miterlimit="10" x1="136" y1="176" x2="136" y2="0"/>
		
			<line id="XMLID_908_" fill="none" stroke="#ffffff" stroke-width="0.2" stroke-miterlimit="10" x1="144" y1="176" x2="144" y2="0"/>
		
			<line id="XMLID_909_" fill="none" stroke="#ffffff" stroke-width="0.2" stroke-miterlimit="10" x1="152" y1="176" x2="152" y2="0"/>
		
			<line id="XMLID_910_" fill="none" stroke="#ffffff" stroke-width="0.2" stroke-miterlimit="10" x1="160" y1="176" x2="160" y2="0"/>
		
			<line id="XMLID_911_" fill="none" stroke="#ffffff" stroke-width="0.2" stroke-miterlimit="10" x1="168" y1="176" x2="168" y2="0"/>
		<line id="XMLID_912_" fill="none" stroke="#ffffff" stroke-width="0.2" stroke-miterlimit="10" x1="176" y1="16" x2="0" y2="16"/>
		<line id="XMLID_913_" fill="none" stroke="#ffffff" stroke-width="0.2" stroke-miterlimit="10" x1="176" y1="24" x2="0" y2="24"/>
		<line id="XMLID_914_" fill="none" stroke="#ffffff" stroke-width="0.2" stroke-miterlimit="10" x1="176" y1="32" x2="0" y2="32"/>
		<line id="XMLID_915_" fill="none" stroke="#ffffff" stroke-width="0.2" stroke-miterlimit="10" x1="176" y1="40" x2="0" y2="40"/>
		<line id="XMLID_916_" fill="none" stroke="#ffffff" stroke-width="0.2" stroke-miterlimit="10" x1="176" y1="48" x2="0" y2="48"/>
		<line id="XMLID_917_" fill="none" stroke="#ffffff" stroke-width="0.2" stroke-miterlimit="10" x1="176" y1="56" x2="0" y2="56"/>
		<line id="XMLID_918_" fill="none" stroke="#ffffff" stroke-width="0.2" stroke-miterlimit="10" x1="176" y1="64" x2="0" y2="64"/>
		<line id="XMLID_919_" fill="none" stroke="#ffffff" stroke-width="0.2" stroke-miterlimit="10" x1="176" y1="72" x2="0" y2="72"/>
		<line id="XMLID_920_" fill="none" stroke="#ffffff" stroke-width="0.2" stroke-miterlimit="10" x1="176" y1="80" x2="0" y2="80"/>
		<line id="XMLID_921_" fill="none" stroke="#ffffff" stroke-width="0.2" stroke-miterlimit="10" x1="176" y1="88" x2="0" y2="88"/>
		<line id="XMLID_922_" fill="none" stroke="#ffffff" stroke-width="0.2" stroke-miterlimit="10" x1="176" y1="96" x2="0" y2="96"/>
		
			<line id="XMLID_923_" fill="none" stroke="#ffffff" stroke-width="0.2" stroke-miterlimit="10" x1="176" y1="104" x2="0" y2="104"/>
		
			<line id="XMLID_924_" fill="none" stroke="#ffffff" stroke-width="0.2" stroke-miterlimit="10" x1="176" y1="112" x2="0" y2="112"/>
		
			<line id="XMLID_925_" fill="none" stroke="#ffffff" stroke-width="0.2" stroke-miterlimit="10" x1="176" y1="120" x2="0" y2="120"/>
		
			<line id="XMLID_926_" fill="none" stroke="#ffffff" stroke-width="0.2" stroke-miterlimit="10" x1="176" y1="128" x2="0" y2="128"/>
		
			<line id="XMLID_927_" fill="none" stroke="#ffffff" stroke-width="0.2" stroke-miterlimit="10" x1="176" y1="136" x2="0" y2="136"/>
		
			<line id="XMLID_928_" fill="none" stroke="#ffffff" stroke-width="0.2" stroke-miterlimit="10" x1="176" y1="144" x2="0" y2="144"/>
		
			<line id="XMLID_929_" fill="none" stroke="#ffffff" stroke-width="0.2" stroke-miterlimit="10" x1="176" y1="152" x2="0" y2="152"/>
		
			<line id="XMLID_930_" fill="none" stroke="#ffffff" stroke-width="0.2" stroke-miterlimit="10" x1="176" y1="160" x2="0" y2="160"/>
		
			<line id="XMLID_931_" fill="none" stroke="#ffffff" stroke-width="0.2" stroke-miterlimit="10" x1="176" y1="168" x2="0" y2="168"/>
		<rect id="XMLID_932_" fill="none" stroke="#ffffff" stroke-width="0.2" stroke-miterlimit="10" width="176" height="176"/>
	</g>
</g>
<g id="ICON">
	
		<circle id="XMLID_3623_" fill="none" stroke="#ffffff" stroke-width="8" stroke-linecap="round" stroke-linejoin="round" stroke-miterlimit="10" cx="68" cy="60" r="24"/>
	<path fill="none" stroke="#ffffff" stroke-width="8" stroke-linecap="round" stroke-linejoin="round" stroke-miterlimit="10" d="
		M78.8,102.9c-2.5,0.5-5.1,0.8-7.7,0.9c-6.4,0.2-13.1-0.1-19.1-2.4c-2.7-1-5.3-2.7-8.2-3.1c-2.5-0.4-5,0.2-7.1,1.7
		c-2.4,1.6-4.4,3.9-6.3,6c-1.8,2.1-3.5,4.3-4.9,6.7c-2.8,4.6-4.6,9.7-5.2,15c-0.2,1.5-0.2,2.9-0.2,4.4c16,0,92.6,0,96,0
		c0-8.4-3-17.3-8.1-24h48c0-5.5-1.9-9.8-5.2-14.2c-1.6-2.2-3.6-4.6-5.8-6.2c-2.2-1.6-4.7-1.8-7.2-0.8c-1.5,0.6-2.9,1.3-4.4,1.8
		c-1.5,0.5-3,0.8-4.5,1c-3.2,0.4-6.6,0.4-9.8,0.1c-3.2-0.3-6.1-1.2-9-2.6c-2.4-1.1-4.9-1.5-7.2-0.1c-2.7,1.5-4.9,4.3-6.7,6.8"/>
	
		<circle id="XMLID_1_" fill="none" stroke="#ffffff" stroke-width="8" stroke-linecap="round" stroke-linejoin="round" stroke-miterlimit="10" cx="124" cy="56" r="16"/>
</g>
</svg>
