<?xml version="1.0" encoding="utf-8"?>
<!-- Generator: Adobe Illustrator 19.0.0, SVG Export Plug-In . SVG Version: 6.00 Build 0)  -->
<svg version="1.1" id="Layer_2" xmlns="http://www.w3.org/2000/svg" xmlns:xlink="http://www.w3.org/1999/xlink" x="0px" y="0px"
	 viewBox="0 0 176 176" enable-background="new 0 0 176 176" width="176" height="176" xml:space="preserve">
<path id="XMLID_60_" fill="#ffffff" d="M140.9,135.8H35.1c-10.2,0-19.1-9.1-19.1-19.4V66.5c0-2.2,1.8-4,4-4s4,1.8,4,4v49.8
	c0,5.9,5.4,11.4,11.1,11.4h105.8c5.3,0,11-4.5,11-11.8V57.8c0-5.5-4.5-10.1-10.1-10.1H27.5L81,99.9c4,4,10.3,4,14.3,0l42.2-43.4
	c1.5-1.6,4.1-1.6,5.7-0.1c1.6,1.5,1.6,4.1,0.1,5.7L101,105.6c-7.1,7.1-18.5,7.1-25.6,0L21.2,52.8c-3.1-3.2-4.1-6.1-3-8.9
	c1.6-3.9,6.6-4.2,7.5-4.2l116,0c10,0,18.1,8.1,18.1,18.1V116C159.9,126.9,151.3,135.8,140.9,135.8z"/>
</svg>
