<?xml version="1.0" encoding="utf-8"?>
<!-- Generator: Adobe Illustrator 19.0.0, SVG Export Plug-In . SVG Version: 6.00 Build 0)  -->
<svg version="1.1" id="Layer_2" xmlns="http://www.w3.org/2000/svg" xmlns:xlink="http://www.w3.org/1999/xlink" x="0px" y="0px"
	 viewBox="0 0 176 176" style="enable-background:new 0 0 176 176;" width="176" height="176" xml:space="preserve">
<style type="text/css">
	.st0{fill:#FFF;}
</style>
<g id="XMLID_59_">
	<g id="XMLID_58_">
		<path id="XMLID_63_" class="st0" d="M88,104c-2.2,0-4-1.8-4-4V59.9c0-2.2,1.8-4,4-4c2.2,0,4,1.8,4,4V100C92,102.2,90.2,104,88,104
			z"/>
		<circle id="XMLID_60_" class="st0" cx="88" cy="116" r="4"/>
	</g>
	<path id="XMLID_62_" class="st0" d="M88,151.9c-3.5,0-6-0.1-9.6-0.7c-2.2-0.4-3.6-2.4-3.3-4.6c0.4-2.2,2.4-3.6,4.6-3.3
		c3.1,0.5,5.2,0.6,8.3,0.6c30.8,0,55.9-25.1,55.9-55.9c0-30.8-25.1-55.9-55.9-55.9c-30.8,0-55.9,25.1-55.9,55.9
		c0,22.3,13.2,42.5,33.7,51.3c2,0.9,3,3.2,2.1,5.3s-3.2,3-5.3,2.1C39.2,136.5,24.1,113.5,24.1,88c0-35.3,28.7-63.9,63.9-63.9
		c35.3,0,63.9,28.7,63.9,63.9C151.9,123.3,123.3,151.9,88,151.9z"/>
</g>
</svg>
