<?xml version="1.0" encoding="utf-8"?>
<!-- Generator: Adobe Illustrator 18.1.0, SVG Export Plug-In . SVG Version: 6.00 Build 0)  -->
<svg version="1.1" xmlns="http://www.w3.org/2000/svg" xmlns:xlink="http://www.w3.org/1999/xlink" x="0px" y="0px"
	 viewBox="0 0 176 176" enable-background="new 0 0 176 176" width="176" height="176" xml:space="preserve">
<g id="Grid" display="none">
	<path id="XMLID_877_" display="inline" fill="#F2F3F4" d="M176,176H0V0h176V176z M160,16H16v144h144V16z"/>
	<g id="XMLID_880_" display="inline">
		
			<line id="XMLID_881_" fill="none" stroke="#ffffff" stroke-width="0.4" stroke-linecap="round" stroke-miterlimit="10" x1="16" y1="88" x2="160" y2="88"/>
		<g id="XMLID_882_">
			
				<rect id="XMLID_883_" x="16" y="16" fill="none" stroke="#ffffff" stroke-width="0.4" stroke-miterlimit="10" width="144" height="144"/>
			
				<circle id="XMLID_884_" fill="none" stroke="#ffffff" stroke-width="0.4" stroke-linecap="round" stroke-miterlimit="10" cx="88" cy="88" r="72"/>
			
				<line id="XMLID_885_" fill="none" stroke="#ffffff" stroke-width="0.4" stroke-linecap="round" stroke-miterlimit="10" x1="88" y1="16" x2="88" y2="160"/>
			<g id="XMLID_886_">
				
					<line id="XMLID_887_" fill="none" stroke="#ffffff" stroke-width="0.4" stroke-linecap="round" stroke-miterlimit="10" x1="16" y1="16" x2="160" y2="160"/>
				
					<line id="XMLID_888_" fill="none" stroke="#ffffff" stroke-width="0.4" stroke-linecap="round" stroke-miterlimit="10" x1="16" y1="160" x2="160" y2="16"/>
			</g>
		</g>
	</g>
	<g id="XMLID_889_" display="inline">
		<line id="XMLID_890_" fill="none" stroke="#ffffff" stroke-width="0.2" stroke-miterlimit="10" x1="176" y1="8" x2="0" y2="8"/>
		<line id="XMLID_891_" fill="none" stroke="#ffffff" stroke-width="0.2" stroke-miterlimit="10" x1="8" y1="176" x2="8" y2="0"/>
		<line id="XMLID_892_" fill="none" stroke="#ffffff" stroke-width="0.2" stroke-miterlimit="10" x1="16" y1="176" x2="16" y2="0"/>
		<line id="XMLID_893_" fill="none" stroke="#ffffff" stroke-width="0.2" stroke-miterlimit="10" x1="24" y1="176" x2="24" y2="0"/>
		<line id="XMLID_894_" fill="none" stroke="#ffffff" stroke-width="0.2" stroke-miterlimit="10" x1="32" y1="176" x2="32" y2="0"/>
		<line id="XMLID_895_" fill="none" stroke="#ffffff" stroke-width="0.2" stroke-miterlimit="10" x1="40" y1="176" x2="40" y2="0"/>
		<line id="XMLID_896_" fill="none" stroke="#ffffff" stroke-width="0.2" stroke-miterlimit="10" x1="48" y1="176" x2="48" y2="0"/>
		<line id="XMLID_897_" fill="none" stroke="#ffffff" stroke-width="0.2" stroke-miterlimit="10" x1="56" y1="176" x2="56" y2="0"/>
		<line id="XMLID_898_" fill="none" stroke="#ffffff" stroke-width="0.2" stroke-miterlimit="10" x1="64" y1="176" x2="64" y2="0"/>
		<line id="XMLID_899_" fill="none" stroke="#ffffff" stroke-width="0.2" stroke-miterlimit="10" x1="72" y1="176" x2="72" y2="0"/>
		<line id="XMLID_900_" fill="none" stroke="#ffffff" stroke-width="0.2" stroke-miterlimit="10" x1="80" y1="176" x2="80" y2="0"/>
		<line id="XMLID_901_" fill="none" stroke="#ffffff" stroke-width="0.2" stroke-miterlimit="10" x1="88" y1="176" x2="88" y2="0"/>
		<line id="XMLID_902_" fill="none" stroke="#ffffff" stroke-width="0.2" stroke-miterlimit="10" x1="96" y1="176" x2="96" y2="0"/>
		
			<line id="XMLID_903_" fill="none" stroke="#ffffff" stroke-width="0.2" stroke-miterlimit="10" x1="104" y1="176" x2="104" y2="0"/>
		
			<line id="XMLID_904_" fill="none" stroke="#ffffff" stroke-width="0.2" stroke-miterlimit="10" x1="112" y1="176" x2="112" y2="0"/>
		
			<line id="XMLID_905_" fill="none" stroke="#ffffff" stroke-width="0.2" stroke-miterlimit="10" x1="120" y1="176" x2="120" y2="0"/>
		
			<line id="XMLID_906_" fill="none" stroke="#ffffff" stroke-width="0.2" stroke-miterlimit="10" x1="128" y1="176" x2="128" y2="0"/>
		
			<line id="XMLID_907_" fill="none" stroke="#ffffff" stroke-width="0.2" stroke-miterlimit="10" x1="136" y1="176" x2="136" y2="0"/>
		
			<line id="XMLID_908_" fill="none" stroke="#ffffff" stroke-width="0.2" stroke-miterlimit="10" x1="144" y1="176" x2="144" y2="0"/>
		
			<line id="XMLID_909_" fill="none" stroke="#ffffff" stroke-width="0.2" stroke-miterlimit="10" x1="152" y1="176" x2="152" y2="0"/>
		
			<line id="XMLID_910_" fill="none" stroke="#ffffff" stroke-width="0.2" stroke-miterlimit="10" x1="160" y1="176" x2="160" y2="0"/>
		
			<line id="XMLID_911_" fill="none" stroke="#ffffff" stroke-width="0.2" stroke-miterlimit="10" x1="168" y1="176" x2="168" y2="0"/>
		<line id="XMLID_912_" fill="none" stroke="#ffffff" stroke-width="0.2" stroke-miterlimit="10" x1="176" y1="16" x2="0" y2="16"/>
		<line id="XMLID_913_" fill="none" stroke="#ffffff" stroke-width="0.2" stroke-miterlimit="10" x1="176" y1="24" x2="0" y2="24"/>
		<line id="XMLID_914_" fill="none" stroke="#ffffff" stroke-width="0.2" stroke-miterlimit="10" x1="176" y1="32" x2="0" y2="32"/>
		<line id="XMLID_915_" fill="none" stroke="#ffffff" stroke-width="0.2" stroke-miterlimit="10" x1="176" y1="40" x2="0" y2="40"/>
		<line id="XMLID_916_" fill="none" stroke="#ffffff" stroke-width="0.2" stroke-miterlimit="10" x1="176" y1="48" x2="0" y2="48"/>
		<line id="XMLID_917_" fill="none" stroke="#ffffff" stroke-width="0.2" stroke-miterlimit="10" x1="176" y1="56" x2="0" y2="56"/>
		<line id="XMLID_918_" fill="none" stroke="#ffffff" stroke-width="0.2" stroke-miterlimit="10" x1="176" y1="64" x2="0" y2="64"/>
		<line id="XMLID_919_" fill="none" stroke="#ffffff" stroke-width="0.2" stroke-miterlimit="10" x1="176" y1="72" x2="0" y2="72"/>
		<line id="XMLID_920_" fill="none" stroke="#ffffff" stroke-width="0.2" stroke-miterlimit="10" x1="176" y1="80" x2="0" y2="80"/>
		<line id="XMLID_921_" fill="none" stroke="#ffffff" stroke-width="0.2" stroke-miterlimit="10" x1="176" y1="88" x2="0" y2="88"/>
		<line id="XMLID_922_" fill="none" stroke="#ffffff" stroke-width="0.2" stroke-miterlimit="10" x1="176" y1="96" x2="0" y2="96"/>
		
			<line id="XMLID_923_" fill="none" stroke="#ffffff" stroke-width="0.2" stroke-miterlimit="10" x1="176" y1="104" x2="0" y2="104"/>
		
			<line id="XMLID_924_" fill="none" stroke="#ffffff" stroke-width="0.2" stroke-miterlimit="10" x1="176" y1="112" x2="0" y2="112"/>
		
			<line id="XMLID_925_" fill="none" stroke="#ffffff" stroke-width="0.2" stroke-miterlimit="10" x1="176" y1="120" x2="0" y2="120"/>
		
			<line id="XMLID_926_" fill="none" stroke="#ffffff" stroke-width="0.2" stroke-miterlimit="10" x1="176" y1="128" x2="0" y2="128"/>
		
			<line id="XMLID_927_" fill="none" stroke="#ffffff" stroke-width="0.2" stroke-miterlimit="10" x1="176" y1="136" x2="0" y2="136"/>
		
			<line id="XMLID_928_" fill="none" stroke="#ffffff" stroke-width="0.2" stroke-miterlimit="10" x1="176" y1="144" x2="0" y2="144"/>
		
			<line id="XMLID_929_" fill="none" stroke="#ffffff" stroke-width="0.2" stroke-miterlimit="10" x1="176" y1="152" x2="0" y2="152"/>
		
			<line id="XMLID_930_" fill="none" stroke="#ffffff" stroke-width="0.2" stroke-miterlimit="10" x1="176" y1="160" x2="0" y2="160"/>
		
			<line id="XMLID_931_" fill="none" stroke="#ffffff" stroke-width="0.2" stroke-miterlimit="10" x1="176" y1="168" x2="0" y2="168"/>
		<rect id="XMLID_932_" fill="none" stroke="#ffffff" stroke-width="0.2" stroke-miterlimit="10" width="176" height="176"/>
	</g>
</g>
<g id="ICON">
	<path fill="none" stroke="#ffffff" stroke-width="8" stroke-linecap="round" stroke-linejoin="round" stroke-miterlimit="10" d="
		M98,156H32c-6.6,0-12-5.4-12-12V32c0-6.6,5.4-12,12-12h112c6.6,0,12,5.4,12,12v112c0,6.6-5.4,12-12,12h-26"/>
	<path id="XMLID_10613_" fill="#ffffff" d="M126.6,64.1c-2.8,1.3-5.9,2.1-9.1,2.5c3.3-2,5.8-5.1,7-8.8c-3.1,1.8-6.4,3.1-10.1,3.8
		c-2.9-3.1-7-5-11.6-5c-8.7,0-15.8,7.1-15.8,15.8c0,1.2,0.1,2.5,0.4,3.6c-13.2-0.7-24.8-7-32.6-16.5c-1.4,2.3-2.1,5.1-2.1,8
		c0,5.5,2.8,10.3,7,13.2c-2.6-0.1-5-0.8-7.2-2c0,0.1,0,0.1,0,0.2c0,7.7,5.5,14.1,12.7,15.5C63.9,94.8,62.5,95,61,95
		c-1,0-2-0.1-3-0.3c2,6.3,7.9,10.9,14.8,11c-5.4,4.2-12.2,6.8-19.7,6.8c-1.3,0-2.5-0.1-3.8-0.2c7,4.5,15.3,7.1,24.3,7.1
		c29.1,0,45.1-24.1,45.1-45.1c0-0.7,0-1.4,0-2.1C121.8,70,124.5,67.2,126.6,64.1z"/>
</g>
</svg>
