<?xml version="1.0" encoding="utf-8"?>
<!-- Generator: Adobe Illustrator 18.1.0, SVG Export Plug-In . SVG Version: 6.00 Build 0)  -->
<svg version="1.1" xmlns="http://www.w3.org/2000/svg" xmlns:xlink="http://www.w3.org/1999/xlink" x="0px" y="0px"
	 viewBox="0 0 144.1 144" enable-background="new 0 0 144.1 144" xml:space="preserve">
<g id="base_grid" display="none">
	<g id="XMLID_1_" display="inline">
		<path id="XMLID_2_" fill="#499419" d="M160,160H-16V-16h176V160z M144,0H0v144h144V0z"/>
		<g id="XMLID_3_">
			
				<line id="XMLID_50_" fill="none" stroke="#D6D3D3" stroke-width="0.4" stroke-linecap="round" stroke-miterlimit="10" x1="0" y1="72" x2="144" y2="72"/>
			<g id="XMLID_4_">
				<rect id="XMLID_49_" y="0" fill="none" stroke="#D6D3D3" stroke-width="0.4" stroke-miterlimit="10" width="144" height="144"/>
				
					<circle id="XMLID_48_" fill="none" stroke="#D6D3D3" stroke-width="0.4" stroke-linecap="round" stroke-miterlimit="10" cx="72" cy="72" r="72"/>
				
					<line id="XMLID_47_" fill="none" stroke="#D6D3D3" stroke-width="0.4" stroke-linecap="round" stroke-miterlimit="10" x1="72" y1="0" x2="72" y2="144"/>
				<g id="XMLID_5_">
					
						<line id="XMLID_46_" fill="none" stroke="#D6D3D3" stroke-width="0.4" stroke-linecap="round" stroke-miterlimit="10" x1="0" y1="0" x2="144.1" y2="144"/>
					
						<line id="XMLID_45_" fill="none" stroke="#D6D3D3" stroke-width="0.4" stroke-linecap="round" stroke-miterlimit="10" x1="0" y1="144" x2="144" y2="0"/>
				</g>
			</g>
		</g>
		<g id="XMLID_6_">
			
				<line id="XMLID_44_" fill="none" stroke="#D6D3D3" stroke-width="0.2" stroke-miterlimit="10" x1="160" y1="-8" x2="-16" y2="-8"/>
			
				<line id="XMLID_43_" fill="none" stroke="#D6D3D3" stroke-width="0.2" stroke-miterlimit="10" x1="-8" y1="160" x2="-8" y2="-16"/>
			<line id="XMLID_42_" fill="none" stroke="#D6D3D3" stroke-width="0.2" stroke-miterlimit="10" x1="0" y1="160" x2="0" y2="-16"/>
			<line id="XMLID_41_" fill="none" stroke="#D6D3D3" stroke-width="0.2" stroke-miterlimit="10" x1="8" y1="160" x2="8" y2="-16"/>
			
				<line id="XMLID_40_" fill="none" stroke="#D6D3D3" stroke-width="0.2" stroke-miterlimit="10" x1="16" y1="160" x2="16" y2="-16"/>
			
				<line id="XMLID_39_" fill="none" stroke="#D6D3D3" stroke-width="0.2" stroke-miterlimit="10" x1="24" y1="160" x2="24" y2="-16"/>
			
				<line id="XMLID_38_" fill="none" stroke="#D6D3D3" stroke-width="0.2" stroke-miterlimit="10" x1="32" y1="160" x2="32" y2="-16"/>
			
				<line id="XMLID_37_" fill="none" stroke="#D6D3D3" stroke-width="0.2" stroke-miterlimit="10" x1="40" y1="160" x2="40" y2="-16"/>
			
				<line id="XMLID_36_" fill="none" stroke="#D6D3D3" stroke-width="0.2" stroke-miterlimit="10" x1="48" y1="160" x2="48" y2="-16"/>
			
				<line id="XMLID_35_" fill="none" stroke="#D6D3D3" stroke-width="0.2" stroke-miterlimit="10" x1="56" y1="160" x2="56" y2="-16"/>
			
				<line id="XMLID_34_" fill="none" stroke="#D6D3D3" stroke-width="0.2" stroke-miterlimit="10" x1="64" y1="160" x2="64" y2="-16"/>
			
				<line id="XMLID_33_" fill="none" stroke="#D6D3D3" stroke-width="0.2" stroke-miterlimit="10" x1="72" y1="160" x2="72" y2="-16"/>
			
				<line id="XMLID_32_" fill="none" stroke="#D6D3D3" stroke-width="0.2" stroke-miterlimit="10" x1="80" y1="160" x2="80" y2="-16"/>
			
				<line id="XMLID_31_" fill="none" stroke="#D6D3D3" stroke-width="0.2" stroke-miterlimit="10" x1="88" y1="160" x2="88" y2="-16"/>
			
				<line id="XMLID_30_" fill="none" stroke="#D6D3D3" stroke-width="0.2" stroke-miterlimit="10" x1="96" y1="160" x2="96" y2="-16"/>
			
				<line id="XMLID_29_" fill="none" stroke="#D6D3D3" stroke-width="0.2" stroke-miterlimit="10" x1="104" y1="160" x2="104" y2="-16"/>
			
				<line id="XMLID_28_" fill="none" stroke="#D6D3D3" stroke-width="0.2" stroke-miterlimit="10" x1="112" y1="160" x2="112" y2="-16"/>
			
				<line id="XMLID_27_" fill="none" stroke="#D6D3D3" stroke-width="0.2" stroke-miterlimit="10" x1="120" y1="160" x2="120" y2="-16"/>
			
				<line id="XMLID_26_" fill="none" stroke="#D6D3D3" stroke-width="0.2" stroke-miterlimit="10" x1="128" y1="160" x2="128" y2="-16"/>
			
				<line id="XMLID_25_" fill="none" stroke="#D6D3D3" stroke-width="0.2" stroke-miterlimit="10" x1="136" y1="160" x2="136" y2="-16"/>
			
				<line id="XMLID_24_" fill="none" stroke="#D6D3D3" stroke-width="0.2" stroke-miterlimit="10" x1="144" y1="160" x2="144" y2="-16"/>
			
				<line id="XMLID_23_" fill="none" stroke="#D6D3D3" stroke-width="0.2" stroke-miterlimit="10" x1="152" y1="160" x2="152" y2="-16"/>
			<line id="XMLID_22_" fill="none" stroke="#D6D3D3" stroke-width="0.2" stroke-miterlimit="10" x1="160" y1="0" x2="-16" y2="0"/>
			<line id="XMLID_21_" fill="none" stroke="#D6D3D3" stroke-width="0.2" stroke-miterlimit="10" x1="160" y1="8" x2="-16" y2="8"/>
			
				<line id="XMLID_20_" fill="none" stroke="#D6D3D3" stroke-width="0.2" stroke-miterlimit="10" x1="160" y1="16" x2="-16" y2="16"/>
			
				<line id="XMLID_19_" fill="none" stroke="#D6D3D3" stroke-width="0.2" stroke-miterlimit="10" x1="160" y1="24" x2="-16" y2="24"/>
			
				<line id="XMLID_18_" fill="none" stroke="#D6D3D3" stroke-width="0.2" stroke-miterlimit="10" x1="160" y1="32" x2="-16" y2="32"/>
			
				<line id="XMLID_17_" fill="none" stroke="#D6D3D3" stroke-width="0.2" stroke-miterlimit="10" x1="160" y1="40" x2="-16" y2="40"/>
			
				<line id="XMLID_16_" fill="none" stroke="#D6D3D3" stroke-width="0.2" stroke-miterlimit="10" x1="160" y1="48" x2="-16" y2="48"/>
			
				<line id="XMLID_15_" fill="none" stroke="#D6D3D3" stroke-width="0.2" stroke-miterlimit="10" x1="160" y1="56" x2="-16" y2="56"/>
			
				<line id="XMLID_14_" fill="none" stroke="#D6D3D3" stroke-width="0.2" stroke-miterlimit="10" x1="160" y1="64" x2="-16" y2="64"/>
			
				<line id="XMLID_13_" fill="none" stroke="#D6D3D3" stroke-width="0.2" stroke-miterlimit="10" x1="160" y1="72" x2="-16" y2="72"/>
			
				<line id="XMLID_12_" fill="none" stroke="#D6D3D3" stroke-width="0.2" stroke-miterlimit="10" x1="160" y1="80" x2="-16" y2="80"/>
			
				<line id="XMLID_11_" fill="none" stroke="#D6D3D3" stroke-width="0.2" stroke-miterlimit="10" x1="160" y1="88" x2="-16" y2="88"/>
			
				<line id="XMLID_10_" fill="none" stroke="#D6D3D3" stroke-width="0.2" stroke-miterlimit="10" x1="160" y1="96" x2="-16" y2="96"/>
			
				<line id="XMLID_9_" fill="none" stroke="#D6D3D3" stroke-width="0.2" stroke-miterlimit="10" x1="160" y1="104" x2="-16" y2="104"/>
			
				<line id="XMLID_8_" fill="none" stroke="#D6D3D3" stroke-width="0.2" stroke-miterlimit="10" x1="160" y1="112" x2="-16" y2="112"/>
			
				<line id="XMLID_7_" fill="none" stroke="#D6D3D3" stroke-width="0.2" stroke-miterlimit="10" x1="160" y1="120" x2="-16" y2="120"/>
			
				<line id="XMLID_53_" fill="none" stroke="#D6D3D3" stroke-width="0.2" stroke-miterlimit="10" x1="160" y1="128" x2="-16" y2="128"/>
			
				<line id="XMLID_54_" fill="none" stroke="#D6D3D3" stroke-width="0.2" stroke-miterlimit="10" x1="160" y1="136" x2="-16" y2="136"/>
			
				<line id="XMLID_55_" fill="none" stroke="#D6D3D3" stroke-width="0.2" stroke-miterlimit="10" x1="160" y1="144" x2="-16" y2="144"/>
			
				<line id="XMLID_56_" fill="none" stroke="#D6D3D3" stroke-width="0.2" stroke-miterlimit="10" x1="160" y1="152" x2="-16" y2="152"/>
			
				<rect id="XMLID_57_" x="-16" y="-16" fill="none" stroke="#D6D3D3" stroke-width="0.2" stroke-miterlimit="10" width="176" height="176"/>
		</g>
	</g>
</g>
<g id="ICON">
	<path fill="none" stroke="#68b207" stroke-width="8" stroke-linecap="round" stroke-linejoin="round" stroke-miterlimit="10" d="
		M49.9,105.9l-29.9-26l0,0c-1.7-1.7-3.8-3.1-6.4-3.1c-4.5,0-8.1,3.6-8.1,8.1c0,2.4,0.6,3.7,1.7,5.5l0.7,0.9l36.6,40.5
		c2,2.3,4.3,4.7,7.6,4.7c3.7,0,6.1-2.9,8-5.7L72.9,112"/>
	<path fill="none" stroke="#68b207" stroke-width="8" stroke-linecap="round" stroke-linejoin="round" stroke-miterlimit="10" d="
		M72.9,112l49.6-75.8c1.1-1.6,1.9-3,1.9-4.8c0-3.9-3.2-7.1-7.1-7.1c-3,0-4.9,1.9-6.6,4.5L62.2,90.3"/>
</g>
</svg>
